# xmcd
#
# Track frame offsets:
# 150
# 14118
# 26661
# 42067
# 53641
# 68453
# 80943
# 88974
# 100651
# 111697
# 125430
# 138128
# 151594
# 164582
# 179533
# 192341
# 202949
# 218110
# 231251
#
# Disc length: 3367 seconds
#
# Revision: 0
# Processed by: cddbd v1.5.2PL0 Copyright (c) Steve Scherf et al.
# Submitted via: Axialis_AX_CDPlayer 2.6
#
DISCID=0a0d2513
DTITLE=Johnny Cash - The Definitive Collection
DYEAR=1900
DGENRE=
TTITLE0=Highwayman
TTITLE1=Sixteen Tons
TTITLE2=The Night Hank Williams Came To Town
TTITLE3=Get Rhythm
TTITLE4=Long Black Veil
TTITLE5=Ring Of Fire
TTITLE6=Guess Things Happen That Way
TTITLE7=I Walk The Line
TTITLE8=Cry Cry Cry
TTITLE9=As Long As I Live
TTITLE10=Ballad Of A Teenage Queen
TTITLE11=Where Did We Go Right
TTITLE12=That Old Wheel
TTITLE13=Cat's In The Cradle
TTITLE14=Family Bible
TTITLE15=Hey Porter
TTITLE16=Goin' By The Book
TTITLE17=Wanted Man
TTITLE18=The Wanderer
EXTD=www.johnnycash.com
EXTT0=With Willie Nelson, Waylon Jennings and Kris Kristofferson
EXTT1=
EXTT2=With Waylon Jennings
EXTT3=
EXTT4=
EXTT5=
EXTT6=
EXTT7=
EXTT8=
EXTT9=With Emmylou Harris
EXTT10=With Rosanne Cash and The Everly Brothers
EXTT11=With June Carter Cash and The Carter Family
EXTT12=With Hank Williams, Jr.
EXTT13=
EXTT14=
EXTT15=
EXTT16=
EXTT17=
EXTT18=With U2
PLAYORDER=
